<?xml version="1.0" encoding="UTF-8" standalone="no"?>
<!-- Created with Inkscape (http://www.inkscape.org/) -->

<svg
   xmlns:dc="http://purl.org/dc/elements/1.1/"
   xmlns:cc="http://creativecommons.org/ns#"
   xmlns:rdf="http://www.w3.org/1999/02/22-rdf-syntax-ns#"
   xmlns:svg="http://www.w3.org/2000/svg"
   xmlns="http://www.w3.org/2000/svg"
   xmlns:sodipodi="http://sodipodi.sourceforge.net/DTD/sodipodi-0.dtd"
   xmlns:inkscape="http://www.inkscape.org/namespaces/inkscape"
   width="608.11182"
   height="622.25397"
   id="svg2"
   version="1.1"
   inkscape:version="0.48.3.1 r9886"
   sodipodi:docname="App.svg"
   inkscape:export-filename="/home/alisue/Dropbox/Codes/Minilog/Slide/imgs/App.png"
   inkscape:export-xdpi="90"
   inkscape:export-ydpi="90">
  <defs
     id="defs4" />
  <sodipodi:namedview
     id="base"
     pagecolor="#ffffff"
     bordercolor="#666666"
     borderopacity="1.0"
     inkscape:pageopacity="0.0"
     inkscape:pageshadow="2"
     inkscape:zoom="0.49497475"
     inkscape:cx="-125.2753"
     inkscape:cy="419.16817"
     inkscape:document-units="px"
     inkscape:current-layer="layer1"
     showgrid="false"
     showguides="true"
     inkscape:guide-bbox="true"
     inkscape:window-width="842"
     inkscape:window-height="386"
     inkscape:window-x="2496"
     inkscape:window-y="289"
     inkscape:window-maximized="0"
     fit-margin-top="0"
     fit-margin-left="0"
     fit-margin-right="0"
     fit-margin-bottom="0" />
  <metadata
     id="metadata7">
    <rdf:RDF>
      <cc:Work
         rdf:about="">
        <dc:format>image/svg+xml</dc:format>
        <dc:type
           rdf:resource="http://purl.org/dc/dcmitype/StillImage" />
        <dc:title></dc:title>
      </cc:Work>
    </rdf:RDF>
  </metadata>
  <g
     inkscape:label="レイヤー 1"
     inkscape:groupmode="layer"
     id="layer1"
     transform="translate(852.56873,-246.26045)">
    <rect
       style="fill:#ffffff;fill-opacity:1;stroke:none"
       id="rect4487"
       width="608.11182"
       height="622.25397"
       x="-852.56873"
       y="246.26045" />
    <path
       inkscape:connector-curvature="0"
       id="path3797"
       d="m -795.42711,369.6485 -33.5,18.375 2,1.09375 2.03125,1.125 29.46875,16.1875 29.46874,-16.1875 1.96875,-1.09375 2.0625,-1.125 -33.49999,-18.375 z m 33.40624,20.59375 -32.28125,17.71875 0,32.3125 32.375,-17.78125 0,-32.25 -0.0937,0 z m -66.90624,0.0313 0,32.21875 32.375,17.78125 0,-32.25 -32.375,-17.75 z"
       style="fill:#13471c;fill-opacity:1;stroke:none" />
    <path
       style="fill:#13471c;fill-opacity:1;stroke:none"
       d="m -778.99194,693.90747 -33.5,18.375 2,1.09375 2.03125,1.125 29.46875,16.1875 29.46874,-16.1875 1.96875,-1.09375 2.0625,-1.125 -33.49999,-18.375 z m 33.40624,20.59375 -32.28125,17.71875 0,32.3125 32.375,-17.78125 0,-32.25 -0.0937,0 z m -66.90624,0.0313 0,32.21875 32.375,17.78125 0,-32.25 -32.375,-17.75 z"
       id="rect2985"
       inkscape:connector-curvature="0" />
    <path
       inkscape:connector-curvature="0"
       id="path3021"
       d="m -689.59342,693.90747 -33.5,18.375 2,1.09375 2.03125,1.125 29.46875,16.1875 29.46874,-16.1875 1.96875,-1.09375 2.0625,-1.125 -33.49999,-18.375 z m 33.40624,20.59375 -32.28125,17.71875 0,32.3125 32.375,-17.78125 0,-32.25 -0.0937,0 z m -66.90624,0.0313 0,32.21875 32.375,17.78125 0,-32.25 -32.375,-17.75 z"
       style="fill:#511e1e;fill-opacity:1;stroke:none" />
    <path
       style="fill:#3d3d3d;fill-opacity:1;stroke:none"
       d="m -600.19493,694.41337 -33.5,18.375 2,1.09375 2.03125,1.125 29.46875,16.1875 29.46874,-16.1875 1.96875,-1.09375 2.0625,-1.125 -33.49999,-18.375 z m 33.40624,20.59375 -32.28125,17.71875 0,32.3125 32.375,-17.78125 0,-32.25 -0.0937,0 z m -66.90624,0.0313 0,32.21875 32.375,17.78125 0,-32.25 -32.375,-17.75 z"
       id="path3023"
       inkscape:connector-curvature="0" />
    <text
       xml:space="preserve"
       style="font-size:291.6661377px;font-style:normal;font-variant:normal;font-weight:normal;font-stretch:normal;line-height:125%;letter-spacing:0px;word-spacing:0px;fill:#3d3d3d;fill-opacity:1;stroke:none;font-family:Sawasdee;-inkscape-font-specification:Sawasdee"
       x="615.74835"
       y="778.95892"
       id="text3025"
       sodipodi:linespacing="125%"
       transform="matrix(0,1,-1,0,0,0)"><tspan
         sodipodi:role="line"
         id="tspan3027"
         x="615.74835"
         y="778.95892">{ </tspan></text>
    <text
       xml:space="preserve"
       style="font-size:48px;font-style:normal;font-variant:normal;font-weight:normal;font-stretch:normal;line-height:125%;letter-spacing:0px;word-spacing:0px;fill:#3d3d3d;fill-opacity:1;stroke:none;font-family:Sawasdee;-inkscape-font-specification:Sawasdee"
       x="-764.91571"
       y="615.97632"
       id="text3799"
       sodipodi:linespacing="125%"><tspan
         sodipodi:role="line"
         id="tspan3801"
         x="-764.91571"
         y="615.97632"
         style="font-size:36px">Project A</tspan></text>
    <text
       sodipodi:linespacing="125%"
       id="text3803"
       y="355.35693"
       x="-827.68292"
       style="font-size:36px;font-style:normal;font-variant:normal;font-weight:normal;font-stretch:normal;line-height:125%;letter-spacing:0px;word-spacing:0px;fill:#3d3d3d;fill-opacity:1;stroke:none;font-family:Sawasdee;-inkscape-font-specification:Sawasdee"
       xml:space="preserve"><tspan
         y="355.35693"
         x="-827.68292"
         id="tspan3805"
         sodipodi:role="line">App</tspan></text>
    <path
       inkscape:connector-curvature="0"
       id="path3826"
       d="m -501.19999,693.90747 -33.5,18.375 2,1.09375 2.03125,1.125 29.46875,16.1875 29.46874,-16.1875 1.96875,-1.09375 2.0625,-1.125 -33.49999,-18.375 z m 33.40624,20.59375 -32.28125,17.71875 0,32.3125 32.375,-17.78125 0,-32.25 -0.0937,0 z m -66.90624,0.0313 0,32.21875 32.375,17.78125 0,-32.25 -32.375,-17.75 z"
       style="fill:#511e1e;fill-opacity:1;stroke:none" />
    <path
       style="fill:#514e1e;fill-opacity:1;stroke:none"
       d="m -411.80147,693.90747 -33.5,18.375 2,1.09375 2.03125,1.125 29.46875,16.1875 29.46874,-16.1875 1.96875,-1.09375 2.0625,-1.125 -33.49999,-18.375 z m 33.40624,20.59375 -32.28125,17.71875 0,32.3125 32.375,-17.78125 0,-32.25 -0.0937,0 z m -66.90624,0.0313 0,32.21875 32.375,17.78125 0,-32.25 -32.375,-17.75 z"
       id="path3828"
       inkscape:connector-curvature="0" />
    <path
       inkscape:connector-curvature="0"
       id="path3830"
       d="m -322.40298,694.41337 -33.5,18.375 2,1.09375 2.03125,1.125 29.46875,16.1875 29.46874,-16.1875 1.96875,-1.09375 2.0625,-1.125 -33.49999,-18.375 z m 33.40624,20.59375 -32.28125,17.71875 0,32.3125 32.375,-17.78125 0,-32.25 -0.0937,0 z m -66.90624,0.0313 0,32.21875 32.375,17.78125 0,-32.25 -32.375,-17.75 z"
       style="fill:#84398e;fill-opacity:1;stroke:none" />
    <text
       transform="matrix(0,1,-1,0,0,0)"
       sodipodi:linespacing="125%"
       id="text3832"
       y="501.16696"
       x="615.74835"
       style="font-size:291.6661377px;font-style:normal;font-variant:normal;font-weight:normal;font-stretch:normal;line-height:125%;letter-spacing:0px;word-spacing:0px;fill:#3d3d3d;fill-opacity:1;stroke:none;font-family:Sawasdee;-inkscape-font-specification:Sawasdee"
       xml:space="preserve"><tspan
         y="501.16696"
         x="615.74835"
         id="tspan3834"
         sodipodi:role="line">{ </tspan></text>
    <text
       sodipodi:linespacing="125%"
       id="text3836"
       y="615.97632"
       x="-486.09543"
       style="font-size:48px;font-style:normal;font-variant:normal;font-weight:normal;font-stretch:normal;line-height:125%;letter-spacing:0px;word-spacing:0px;fill:#3d3d3d;fill-opacity:1;stroke:none;font-family:Sawasdee;-inkscape-font-specification:Sawasdee"
       xml:space="preserve"><tspan
         style="font-size:36px"
         y="615.97632"
         x="-486.09543"
         id="tspan3838"
         sodipodi:role="line">Project B</tspan></text>
    <g
       id="g4343"
       transform="translate(-292.94424,385.87827)">
      <path
         sodipodi:nodetypes="cc"
         inkscape:connector-curvature="0"
         id="path3895"
         d="m -395.95877,384.86492 c 94.65008,82.96719 171.53215,7.51538 183.41883,7.13234"
         style="fill:none;stroke:#3d3d3d;stroke-width:5;stroke-linecap:butt;stroke-linejoin:miter;stroke-miterlimit:4;stroke-opacity:1;stroke-dasharray:none" />
      <path
         transform="matrix(0.80758344,0.58975332,-0.58975332,0.80758344,209.39873,100.11452)"
         inkscape:transform-center-y="2.0608024"
         inkscape:transform-center-x="0.88015666"
         d="m -162.63455,493.74782 -9.56019,-2.56165 -9.56019,-2.56164 6.99855,-6.99854 6.99854,-6.99855 2.56164,9.56019 z"
         inkscape:randomized="0"
         inkscape:rounded="0"
         inkscape:flatsided="false"
         sodipodi:arg2="1.8325957"
         sodipodi:arg1="0.78539816"
         sodipodi:r2="5.7142854"
         sodipodi:r1="11.428571"
         sodipodi:cy="485.6666"
         sodipodi:cx="-170.71577"
         sodipodi:sides="3"
         id="path4341"
         style="fill:#3d3d3d;fill-opacity:1;stroke:none"
         sodipodi:type="star" />
    </g>
    <text
       xml:space="preserve"
       style="font-size:36px;font-style:normal;font-variant:normal;font-weight:normal;font-stretch:normal;line-height:125%;letter-spacing:0px;word-spacing:0px;fill:#3d3d3d;fill-opacity:1;stroke:none;font-family:Sawasdee;-inkscape-font-specification:Sawasdee"
       x="-643.69128"
       y="847.77783"
       id="text4347"
       sodipodi:linespacing="125%"><tspan
         sodipodi:role="line"
         id="tspan4349"
         x="-643.69128"
         y="847.77783">Reuse</tspan></text>
    <text
       xml:space="preserve"
       style="font-size:28px;font-style:normal;font-variant:normal;font-weight:normal;font-stretch:normal;line-height:125%;letter-spacing:0px;word-spacing:0px;fill:#3d3d3d;fill-opacity:1;stroke:none;font-family:Sawasdee;-inkscape-font-specification:Sawasdee"
       x="-678.96613"
       y="305.85944"
       id="text4351"
       sodipodi:linespacing="125%"><tspan
         sodipodi:role="line"
         x="-678.96613"
         y="305.85944"
         id="tspan4365">__init__.py</tspan><tspan
         sodipodi:role="line"
         x="-678.96613"
         y="340.85944"
         id="tspan4408">models.py</tspan><tspan
         sodipodi:role="line"
         x="-678.96613"
         y="375.85944"
         id="tspan4410">views.py</tspan><tspan
         sodipodi:role="line"
         x="-678.96613"
         y="410.85944"
         id="tspan4412">tests.py</tspan><tspan
         sodipodi:role="line"
         x="-678.96613"
         y="445.85944"
         id="tspan4414">forms.py</tspan><tspan
         sodipodi:role="line"
         x="-678.96613"
         y="480.85944"
         id="tspan4420">admin.py</tspan><tspan
         sodipodi:role="line"
         x="-678.96613"
         y="515.85944"
         id="tspan4416">urls.py</tspan><tspan
         sodipodi:role="line"
         x="-678.96613"
         y="550.85944"
         id="tspan4418" /></text>
    <text
       sodipodi:linespacing="125%"
       id="text4369"
       y="495.20752"
       x="-763.54004"
       style="font-size:291.6661377px;font-style:normal;font-variant:normal;font-weight:normal;font-stretch:normal;line-height:125%;letter-spacing:0px;word-spacing:0px;fill:#3d3d3d;fill-opacity:1;stroke:none;font-family:Sawasdee;-inkscape-font-specification:Sawasdee"
       xml:space="preserve"><tspan
         y="495.20752"
         x="-763.54004"
         id="tspan4371"
         sodipodi:role="line">{ </tspan></text>
    <text
       sodipodi:linespacing="125%"
       id="text4422"
       y="305.85944"
       x="-525.42291"
       style="font-size:28px;font-style:normal;font-variant:normal;font-weight:normal;font-stretch:normal;line-height:125%;letter-spacing:0px;word-spacing:0px;fill:#3d3d3d;fill-opacity:1;stroke:none;font-family:Sawasdee;-inkscape-font-specification:Sawasdee"
       xml:space="preserve"><tspan
         id="tspan4438"
         y="305.85944"
         x="-525.42291"
         sodipodi:role="line" /><tspan
         y="340.85944"
         x="-525.42291"
         sodipodi:role="line"
         id="tspan4475">Django ORM model</tspan><tspan
         y="375.85944"
         x="-525.42291"
         sodipodi:role="line"
         id="tspan4477">Django Views</tspan><tspan
         y="410.85944"
         x="-525.42291"
         sodipodi:role="line"
         id="tspan4479">Unittests</tspan><tspan
         y="445.85944"
         x="-525.42291"
         sodipodi:role="line"
         id="tspan4481">Django Forms</tspan><tspan
         y="480.85944"
         x="-525.42291"
         sodipodi:role="line"
         id="tspan4483">Django Admin</tspan><tspan
         y="515.85944"
         x="-525.42291"
         sodipodi:role="line"
         id="tspan4485">URLconf</tspan></text>
  </g>
</svg>
